HIERARCHY
ROOT reference
{
  OFFSET 0 0 0
  CHANNELS 6 Xposition Yposition Zposition Zrotation Xrotation Yrotation
  JOINT Hips
  {
    OFFSET 366.965 89.8555 201.872
    CHANNELS 3 Zrotation Xrotation Yrotation
    JOINT RightUpLeg
    {
      OFFSET -9.27238 -1.56811 0.0123499
      CHANNELS 3 Zrotation Xrotation Yrotation
      JOINT RightLeg
      {
        OFFSET 0.00682797 -41.8882 0.0419786
        CHANNELS 3 Zrotation Xrotation Yrotation
        JOINT RightFoot
        {
          OFFSET 0.530869 -42.1265 0.242224
          CHANNELS 3 Zrotation Xrotation Yrotation
          End Site
          {
            OFFSET 0 -7.69 17.5
          }
        }
      }
    }
    JOINT LeftUpLeg
    {
      OFFSET 9.28391 -1.61639 -0.0258413
      CHANNELS 3 Zrotation Xrotation Yrotation
      JOINT LeftLeg
      {
        OFFSET 0.0291166 -41.8727 -0.014263
        CHANNELS 3 Zrotation Xrotation Yrotation
        JOINT LeftFoot
        {
          OFFSET -0.125672 -41.4933 -0.195947
          CHANNELS 3 Zrotation Xrotation Yrotation
          End Site
          {
            OFFSET 0 -7.69 17.5
          }
        }
      }
    }
    JOINT Spine
    {
      OFFSET 0.0325614 14.2957 0.0242834
      CHANNELS 3 Zrotation Xrotation Yrotation
      JOINT Spine1
      {
        OFFSET 0.00746153 9.71731 0.0172653
        CHANNELS 3 Zrotation Xrotation Yrotation
        JOINT Spine2
        {
          OFFSET 0.0283815 10.1155 -0.00252583
          CHANNELS 3 Zrotation Xrotation Yrotation
          JOINT Spine3
          {
            OFFSET 0.0279172 9.71841 -0.00465252
            CHANNELS 3 Zrotation Xrotation Yrotation
            JOINT Neck
            {
              OFFSET 0.0182001 10.3765 0.0184284
              CHANNELS 3 Zrotation Xrotation Yrotation
              JOINT Head
              {
                OFFSET 0.0113688 9.47343 0.00632939
                CHANNELS 3 Zrotation Xrotation Yrotation
                End Site
                {
                  OFFSET 0 15.95 0
                }
              }
            }
            JOINT RightShoulder
            {
              OFFSET -3.17351 6.93492 0.00767284
              CHANNELS 3 Zrotation Xrotation Yrotation
              JOINT RightArm
              {
                OFFSET -12.7835 -0.0133269 0.0174019
                CHANNELS 3 Zrotation Xrotation Yrotation
                JOINT RightForeArm
                {
                  OFFSET -26.5112 -0.0170228 0.0247955
                  CHANNELS 3 Zrotation Xrotation Yrotation
                  JOINT RightHand
                  {
                    OFFSET -25.9918 -0.0199622 0.0218897
                    CHANNELS 3 Zrotation Xrotation Yrotation
                    JOINT RightHandThumb1
                    {
                      OFFSET -2.48905 0.190105 3.12053
                      CHANNELS 3 Zrotation Xrotation Yrotation
                      JOINT RightHandThumb2
                      {
                        OFFSET -3.68274 0 0
                        CHANNELS 3 Zrotation Xrotation Yrotation
                        JOINT RightHandThumb3
                        {
                          OFFSET -2.55832 0 0
                          CHANNELS 3 Zrotation Xrotation Yrotation
                          End Site
                          {
                            OFFSET -2.194 0 0
                          }
                        }
                      }
                    }
                    JOINT RightInHandIndex
                    {
                      OFFSET -3.22368 0.508421 1.97842
                      CHANNELS 3 Zrotation Xrotation Yrotation
                      JOINT RightHandIndex1
                      {
                        OFFSET -5.21684 -0.091368 0.999158
                        CHANNELS 3 Zrotation Xrotation Yrotation
                        JOINT RightHandIndex2
                        {
                          OFFSET -3.61937 0 0
                          CHANNELS 3 Zrotation Xrotation Yrotation
                          JOINT RightHandIndex3
                          {
                            OFFSET -2.0521 0 0
                            CHANNELS 3 Zrotation Xrotation Yrotation
                            End Site
                            {
                              OFFSET -1.805 0 0
                            }
                          }
                        }
                      }
                    }
                    JOINT RightInHandMiddle
                    {
                      OFFSET -3.38211 0.517263 0.756737
                      CHANNELS 3 Zrotation Xrotation Yrotation
                      JOINT RightHandMiddle1
                      {
                        OFFSET -5.17411 -0.084 0.313895
                        CHANNELS 3 Zrotation Xrotation Yrotation
                        JOINT RightHandMiddle2
                        {
                          OFFSET -3.94947 0 0
                          CHANNELS 3 Zrotation Xrotation Yrotation
                          JOINT RightHandMiddle3
                          {
                            OFFSET -2.47579 0 0
                            CHANNELS 3 Zrotation Xrotation Yrotation
                            End Site
                            {
                              OFFSET -1.975 0 0
                            }
                          }
                        }
                      }
                    }
                    JOINT RightInHandRing
                    {
                      OFFSET -3.36516 0.537895 -0.128947
                      CHANNELS 3 Zrotation Xrotation Yrotation
                      JOINT RightHandRing1
                      {
                        OFFSET -4.63474 -0.022105 -0.478947
                        CHANNELS 3 Zrotation Xrotation Yrotation
                        JOINT RightHandRing2
                        {
                          OFFSET -3.44238 0 0
                          CHANNELS 3 Zrotation Xrotation Yrotation
                          JOINT RightHandRing3
                          {
                            OFFSET -2.3881 0 0
                            CHANNELS 3 Zrotation Xrotation Yrotation
                            End Site
                            {
                              OFFSET -1.857 0 0
                            }
                          }
                        }
                      }
                    }
                    JOINT RightInHandPinky
                    {
                      OFFSET -3.16105 0.469368 -1.20179
                      CHANNELS 3 Zrotation Xrotation Yrotation
                      JOINT RightHandPinky1
                      {
                        OFFSET -4.14105 -0.022105 -1.09053
                        CHANNELS 3 Zrotation Xrotation Yrotation
                        JOINT RightHandPinky2
                        {
                          OFFSET -2.75653 0 0
                          CHANNELS 3 Zrotation Xrotation Yrotation
                          JOINT RightHandPinky3
                          {
                            OFFSET -1.74189 0 0
                            CHANNELS 3 Zrotation Xrotation Yrotation
                            End Site
                            {
                              OFFSET -1.645 0 0
                            }
                          }
                        }
                      }
                    }
                  }
                }
              }
            }
            JOINT LeftShoulder
            {
              OFFSET 3.23633 6.91116 -0.0162332
              CHANNELS 3 Zrotation Xrotation Yrotation
              JOINT LeftArm
              {
                OFFSET 12.8112 -0.0136289 -0.0286256
                CHANNELS 3 Zrotation Xrotation Yrotation
                JOINT LeftForeArm
                {
                  OFFSET 26.502 -0.0235899 -0.00806802
                  CHANNELS 3 Zrotation Xrotation Yrotation
                  JOINT LeftHand
                  {
                    OFFSET 25.9974 -0.0321613 -0.027004
                    CHANNELS 3 Zrotation Xrotation Yrotation
                    JOINT LeftHandThumb1
                    {
                      OFFSET 2.48905 0.190105 3.12053
                      CHANNELS 3 Zrotation Xrotation Yrotation
                      JOINT LeftHandThumb2
                      {
                        OFFSET 3.68274 0 0
                        CHANNELS 3 Zrotation Xrotation Yrotation
                        JOINT LeftHandThumb3
                        {
                          OFFSET 2.55832 0 0
                          CHANNELS 3 Zrotation Xrotation Yrotation
                          End Site
                          {
                            OFFSET 2.194 0 0
                          }
                        }
                      }
                    }
                    JOINT LeftInHandIndex
                    {
                      OFFSET 3.22368 0.508421 1.97842
                      CHANNELS 3 Zrotation Xrotation Yrotation
                      JOINT LeftHandIndex1
                      {
                        OFFSET 5.21684 -0.091368 0.999158
                        CHANNELS 3 Zrotation Xrotation Yrotation
                        JOINT LeftHandIndex2
                        {
                          OFFSET 3.61937 0 0
                          CHANNELS 3 Zrotation Xrotation Yrotation
                          JOINT LeftHandIndex3
                          {
                            OFFSET 2.0521 0 0
                            CHANNELS 3 Zrotation Xrotation Yrotation
                            End Site
                            {
                              OFFSET 1.805 0 0
                            }
                          }
                        }
                      }
                    }
                    JOINT LeftInHandMiddle
                    {
                      OFFSET 3.38211 0.517263 0.756737
                      CHANNELS 3 Zrotation Xrotation Yrotation
                      JOINT LeftHandMiddle1
                      {
                        OFFSET 5.17411 -0.084 0.313895
                        CHANNELS 3 Zrotation Xrotation Yrotation
                        JOINT LeftHandMiddle2
                        {
                          OFFSET 3.94947 0 0
                          CHANNELS 3 Zrotation Xrotation Yrotation
                          JOINT LeftHandMiddle3
                          {
                            OFFSET 2.47579 0 0
                            CHANNELS 3 Zrotation Xrotation Yrotation
                            End Site
                            {
                              OFFSET 1.975 0 0
                            }
                          }
                        }
                      }
                    }
                    JOINT LeftInHandRing
                    {
                      OFFSET 3.36516 0.537895 -0.128947
                      CHANNELS 3 Zrotation Xrotation Yrotation
                      JOINT LeftHandRing1
                      {
                        OFFSET 4.63474 -0.022105 -0.478947
                        CHANNELS 3 Zrotation Xrotation Yrotation
                        JOINT LeftHandRing2
                        {
                          OFFSET 3.44238 0 0
                          CHANNELS 3 Zrotation Xrotation Yrotation
                          JOINT LeftHandRing3
                          {
                            OFFSET 2.3881 0 0
                            CHANNELS 3 Zrotation Xrotation Yrotation
                            End Site
                            {
                              OFFSET 1.857 0 0
                            }
                          }
                        }
                      }
                    }
                    JOINT LeftInHandPinky
                    {
                      OFFSET 3.16105 0.469368 -1.20179
                      CHANNELS 3 Zrotation Xrotation Yrotation
                      JOINT LeftHandPinky1
                      {
                        OFFSET 4.14105 -0.022105 -1.09053
                        CHANNELS 3 Zrotation Xrotation Yrotation
                        JOINT LeftHandPinky2
                        {
                          OFFSET 2.75653 0 0
                          CHANNELS 3 Zrotation Xrotation Yrotation
                          JOINT LeftHandPinky3
                          {
                            OFFSET 1.74189 0 0
                            CHANNELS 3 Zrotation Xrotation Yrotation
                            End Site
                            {
                              OFFSET 1.645 0 0
                            }
                          }
                        }
                      }
                    }
                  }
                }
              }
            }
          }
        }
      }
    }
  }
}
MOTION
Frames: 2
Frame Time: 0.00833333
6.000000000000000000e+02 0.000000000000000000e+00 0.000000000000000000e+00 0.000000000000000000e+00 0.000000000000000000e+00 0.000000000000000000e+00 5.161962790362149833e-03 -2.306965152909547789e-01 -3.287341843744907011e-01 2.191564412483560653e-01 -1.778904101664115500e-01 6.747461638829260755e-02 -1.794413865874395358e-02 -2.992852802615048602e-01 -6.830602167880753250e-02 -3.355652142826587303e-01 4.976861608953890848e-01 6.000222059810602637e-01 5.984446757265744071e-02 1.912414557233712842e-01 3.208206696934228115e-03 -1.177804015771645035e-01 8.426145554850246466e-02 2.160442116262300538e-01 -5.235572073111485064e-02 -2.149526468149797476e-01 2.124137038518107423e-01 -1.422382848578530867e-01 2.451576739520964360e-02 3.476632758551916336e-01 -3.471668274220681555e-02 8.058451123853029724e-03 8.132156133655069064e-02 -5.353140482967542330e-02 1.494142348132304274e-02 1.193612898968443720e-01 -9.611056886028127369e-03 -1.526236751506893086e-02 1.003187947587626206e-03 -4.083988210565484001e-02 -9.990511993773759647e-02 -8.029556129414447407e-02 -1.700737556169724385e-01 -1.143302072569092886e-01 1.599915763574118743e-01 -3.472397295776141202e-01 3.381352304520385960e-02 -8.199801279722940262e-02 7.609527485356094578e-01 -7.976234147039807931e-01 -3.086434430132741213e-01 3.002254583552339984e+00 2.677043721021543088e-01 3.741638101115822845e+00 -1.681795025773503927e+00 6.803368008200518791e-01 -1.183749509603917671e+00 0.000000000000000000e+00 0.000000000000000000e+00 0.000000000000000000e+00 -3.810527968370128553e-15 -3.862930995153777051e-15 0.000000000000000000e+00 -1.408326484619645381e-15 -2.628507220164786630e-15 0.000000000000000000e+00 -3.780911915745048152e-15 -1.532062056496393520e-15 1.107370755234891961e-15 0.000000000000000000e+00 0.000000000000000000e+00 0.000000000000000000e+00 0.000000000000000000e+00 -4.446307484775305517e-16 -4.616060547817816095e-15 0.000000000000000000e+00 -3.236729130539740010e-15 -7.578170331670680171e-15 -3.780911915745048152e-15 -1.532062056496393520e-15 1.107370755234891961e-15 0.000000000000000000e+00 2.231643656045636553e-15 5.320934638701340513e-17 0.000000000000000000e+00 1.549493953221577320e-15 -5.574240116259308767e-15 0.000000000000000000e+00 1.252692081206803031e-16 -1.777345263875861656e-14 -3.780911915745048152e-15 -1.532062056496393520e-15 1.107370755234891961e-15 0.000000000000000000e+00 0.000000000000000000e+00 0.000000000000000000e+00 0.000000000000000000e+00 -2.830816156189614787e-17 3.691107353982724639e-16 0.000000000000000000e+00 6.398968788133752852e-16 -8.748679212306632584e-15 -3.780911915745048152e-15 -1.532062056496393520e-15 1.107370755234891961e-15 0.000000000000000000e+00 0.000000000000000000e+00 0.000000000000000000e+00 0.000000000000000000e+00 -9.603714472040479840e-16 4.179666163012812279e-15 0.000000000000000000e+00 3.059371588775565565e-15 -1.193202627862291138e-14 9.255190475397813421e-02 -7.692849694837152093e-03 -7.354761981429716600e-02 -2.702565960535247003e-01 9.094611810094276050e-02 -2.960015012231547241e-03 -1.950424415501440079e+00 -3.230797128114636096e-02 -2.733859545712915118e+00 -2.344354174203043539e-02 -3.585136226075251731e-01 -1.161162919211960881e-01 0.000000000000000000e+00 0.000000000000000000e+00 0.000000000000000000e+00 4.492854274901316307e-15 3.496745250214014354e-15 0.000000000000000000e+00 3.556350076833350886e-15 2.614306869997712152e-15 0.000000000000000000e+00 -1.816879165926592671e-15 1.860850373812390749e-16 -2.485292511353432229e-15 0.000000000000000000e+00 0.000000000000000000e+00 0.000000000000000000e+00 0.000000000000000000e+00 -2.689559014820097948e-15 -4.529347527217479110e-15 0.000000000000000000e+00 -1.716857834633600735e-16 1.940892450831603580e-15 -1.816879165926592671e-15 1.860850373812390749e-16 -2.485292511353432229e-15 0.000000000000000000e+00 -2.616492795639058914e-15 -2.188637490166752239e-15 0.000000000000000000e+00 -5.671826434167378967e-15 -2.418746152444778564e-15 0.000000000000000000e+00 -6.642046674954189595e-16 -3.463727966385926011e-15 -1.816879165926592671e-15 1.860850373812390749e-16 -2.485292511353432229e-15 0.000000000000000000e+00 0.000000000000000000e+00 0.000000000000000000e+00 0.000000000000000000e+00 -8.454680092489609063e-16 5.154610600164962891e-15 0.000000000000000000e+00 -2.735118744492901266e-15 -4.647565236957581385e-16 -1.816879165926592671e-15 1.860850373812390749e-16 -2.485292511353432229e-15 0.000000000000000000e+00 0.000000000000000000e+00 0.000000000000000000e+00 0.000000000000000000e+00 8.284056277084291637e-16 2.320057921283047213e-15 0.000000000000000000e+00 5.538922367433427684e-16 2.531934382279622738e-16
6.000000000000000000e+02 0.000000000000000000e+00 0.000000000000000000e+00 0.000000000000000000e+00 0.000000000000000000e+00 0.000000000000000000e+00 -3.146419685043470860e-03 -2.076612394769075387e-01 -2.879404346281216887e-01 1.693656698456069976e-01 -1.398228289075374997e-01 1.310668852499007227e-02 2.102228106519925949e-03 -2.951928961624336600e-01 -1.044138889622614613e-01 -3.068451228832651534e-01 4.578644316241810008e-01 5.757985834967630501e-01 1.698694866366725481e-02 1.851427488683104194e-01 -4.882308684725122222e-02 -8.629765348767969024e-02 7.306520517339282206e-02 1.876824365876313683e-01 -2.708705247364407917e-02 -1.853291750660511772e-01 2.209269700468675657e-01 -1.349977158968961310e-01 4.321162330056819989e-02 3.308197341648267398e-01 -3.172985899948761040e-02 1.308207646941498409e-02 7.831401003338368805e-02 -4.912672298879160876e-02 2.339267757290050195e-02 1.165083640540250792e-01 -6.593955673283694724e-03 -1.282356836988430421e-02 -2.493313744628648711e-03 -3.327026189202343665e-02 -7.482833655131244932e-02 -6.103920939311371224e-02 -1.169886362998690255e-01 -9.518682273180546771e-02 7.754410736972017215e-02 -3.461902200110504313e-01 2.515495080206452821e-02 -6.633384938537964515e-02 7.194766482295799070e-01 -7.103302537932261185e-01 -2.799008754020910761e-01 2.907212932544464223e+00 2.763509449771854309e-01 3.497141536855487232e+00 -1.720024581187648005e+00 6.841482695493537047e-01 -1.220589342770374452e+00 0.000000000000000000e+00 0.000000000000000000e+00 0.000000000000000000e+00 -3.922959365145484357e-15 -3.877543595624871353e-15 0.000000000000000000e+00 -1.563959480533696914e-15 -2.642163615214671203e-15 0.000000000000000000e+00 -3.735359280409390558e-15 -1.458400019399376876e-15 1.112003882462845850e-15 0.000000000000000000e+00 0.000000000000000000e+00 0.000000000000000000e+00 0.000000000000000000e+00 -5.414856896503448349e-16 -4.923565304700494472e-15 0.000000000000000000e+00 -3.248482036760712210e-15 -7.726732940400156293e-15 -3.735359280409390558e-15 -1.458400019399376876e-15 1.112003882462845850e-15 0.000000000000000000e+00 2.195789845118420800e-15 -2.078501927384286529e-16 0.000000000000000000e+00 1.473090175074173050e-15 -6.075632607722472585e-15 0.000000000000000000e+00 7.547220509456791223e-17 -1.808563020391788671e-14 -3.735359280409390558e-15 -1.458400019399376876e-15 1.112003882462845850e-15 0.000000000000000000e+00 0.000000000000000000e+00 0.000000000000000000e+00 0.000000000000000000e+00 -1.815589970194003172e-16 -9.366980037134536324e-17 0.000000000000000000e+00 7.030409933849305557e-16 -9.025863553760483025e-15 -3.735359280409390558e-15 -1.458400019399376876e-15 1.112003882462845850e-15 0.000000000000000000e+00 0.000000000000000000e+00 0.000000000000000000e+00 0.000000000000000000e+00 -1.167569095298248708e-15 3.542881492348257302e-15 0.000000000000000000e+00 3.010873149153071614e-15 -1.215343748680214582e-14 1.312820118183077867e-01 5.006267800881812266e-04 -2.985992477692978042e-02 -3.731670197817917312e-01 9.230443755571253461e-02 9.237593316429955348e-02 -2.133993821046169970e+00 -2.025569659710079740e-01 -2.849694215402359898e+00 1.782788240797019471e-03 -3.391846263082001212e-01 -1.559865938061558155e-01 0.000000000000000000e+00 0.000000000000000000e+00 0.000000000000000000e+00 4.434003007554569964e-15 3.486972871205845498e-15 0.000000000000000000e+00 3.539417825239783571e-15 2.649937746769764708e-15 0.000000000000000000e+00 -1.747055330093153317e-15 5.631901123566807527e-17 -2.507135796487793953e-15 0.000000000000000000e+00 0.000000000000000000e+00 0.000000000000000000e+00 0.000000000000000000e+00 -2.666221449899814171e-15 -4.561315848754096447e-15 0.000000000000000000e+00 -1.702494905015428971e-16 1.905656057074903573e-15 -1.747055330093153317e-15 5.631901123566807527e-17 -2.507135796487793953e-15 0.000000000000000000e+00 -2.595481543645985574e-15 -2.069189119321463032e-15 0.000000000000000000e+00 -5.666345577617673466e-15 -2.443628080829665308e-15 0.000000000000000000e+00 -6.673153494421038748e-16 -3.432434949525540733e-15 -1.747055330093153317e-15 5.631901123566807527e-17 -2.507135796487793953e-15 0.000000000000000000e+00 0.000000000000000000e+00 0.000000000000000000e+00 0.000000000000000000e+00 -9.412134581350418371e-16 5.231649513373974471e-15 0.000000000000000000e+00 -2.702896191605610899e-15 -5.615717840360084694e-16 -1.747055330093153317e-15 5.631901123566807527e-17 -2.507135796487793953e-15 0.000000000000000000e+00 0.000000000000000000e+00 0.000000000000000000e+00 0.000000000000000000e+00 8.213611248989425730e-16 2.275991486085919358e-15 0.000000000000000000e+00 5.171428930003682892e-16 1.807154168915259387e-16
